<?xml version="1.0" encoding="UTF-8" standalone="no"?>
<svg
   xmlns:dc="http://purl.org/dc/elements/1.1/"
   xmlns:cc="http://creativecommons.org/ns#"
   xmlns:rdf="http://www.w3.org/1999/02/22-rdf-syntax-ns#"
   xmlns:svg="http://www.w3.org/2000/svg"
   xmlns="http://www.w3.org/2000/svg"
   version="1.1"
   id="svg2"
   width="24"
   height="24"
   viewBox="0 0 85.333333 85.333333">
  <path
     id="rect4211"
     d="m 20.650363,0.9588158 c -11.0739946,0 -19.98654968,7.1139214 -19.98654968,15.9504712 l 0,52.475942 c 0,8.83656 8.91255328,15.943548 19.98654968,15.943548 l 43.600723,0 c 11.073997,0 19.986551,-7.106988 19.986551,-15.943548 l 0,-52.475942 c 0,-8.8365498 -8.912554,-15.9504712 -19.986551,-15.9504712 l -43.600723,0 z M 28.320989,15.64931 c 2.648027,0 5.228556,0.415378 7.74678,1.246132 2.544183,0.856715 4.788948,2.063038 6.736026,3.620701 l -6.459112,8.799066 C 35.22836,28.380612 34.006459,27.677933 32.682446,27.210633 31.30651,26.743334 29.85269,26.511415 28.320989,26.511415 c -2.855716,0 -5.268364,0.919023 -7.241403,2.762256 -1.999001,1.843237 -2.997637,4.127809 -2.997637,6.85372 0,2.128806 0.424032,4.037808 1.280746,5.725276 0.830754,1.687467 2.06823,3.028792 3.703776,4.015311 1.583624,1.012479 3.413014,1.516124 5.489898,1.516124 3.063404,0 5.683739,-0.974404 7.864469,-2.921485 l 6.81218,8.646761 c -0.986519,1.038443 -2.360725,1.957468 -4.126078,2.762257 -1.791312,0.804794 -3.636279,1.403632 -5.531434,1.793046 -1.895157,0.389414 -3.644932,0.581525 -5.254517,0.581525 -4.517223,0 -8.503111,-0.94325 -11.95593,-2.838407 -3.45282,-1.921117 -6.097387,-4.444532 -7.9406213,-7.559858 -1.8432346,-3.167248 -2.769179,-6.554303 -2.769179,-10.162888 0,-3.297055 0.5590282,-6.277383 1.6753532,-8.951373 1.1422862,-2.72591 2.7155261,-5.065865 4.7145271,-7.012943 1.97304,-1.895158 4.370111,-3.388784 7.199866,-4.479148 2.803792,-1.064403 5.830852,-1.592279 9.075984,-1.592279 z m 22.464965,14.960489 7.7537,17.681212 7.629089,-17.681212 13.202061,0 L 58.380426,72.08518 38.130807,30.692877 50.785954,30.609791 Z M 20.920358,74.805898 c 0.871155,0.887377 1.8139,1.70151 2.789948,2.471493 -0.369947,-0.234554 -0.755127,-0.454156 -1.100749,-0.733832 -0.680189,-0.542755 -1.216503,-1.129509 -1.689199,-1.737661 z"
     style="fill:#fff" />
</svg>
